<?xml version="1.0" encoding="utf-8"?>
<!-- Generator: Adobe Illustrator 16.0.0, SVG Export Plug-In . SVG Version: 6.00 Build 0)  -->
<!DOCTYPE svg PUBLIC "-//W3C//DTD SVG 1.1//EN" "http://www.w3.org/Graphics/SVG/1.1/DTD/svg11.dtd">
<svg version="1.1" id="Capa_1" xmlns="http://www.w3.org/2000/svg" xmlns:xlink="http://www.w3.org/1999/xlink" x="0px" y="0px"
	 width="100px" height="85px" viewBox="0 0 100 85" enable-background="new 0 0 100 85" xml:space="preserve">
<g>
	<path fill="#FFFFFF" stroke="#000000" stroke-miterlimit="10" d="M50.001,0l-26,24.398h16.5V50h19V24.398h16.5L50.001,0z
		 M96.698,57.711L80.779,47h-9.815l17.002,13.043H70.243c-0.509,0-0.97,0.258-1.197,0.664L64.96,71.883H35.038l-4.086-11.176
		c-0.227-0.406-0.689-0.664-1.197-0.664H12.032L29.036,47h-9.818L3.302,57.711c-2.369,1.415-3.785,4.676-3.15,7.246l2.807,15.369
		C3.595,82.896,6.411,85,9.216,85h81.568c2.805,0,5.62-2.104,6.258-4.674l2.806-15.369C100.484,62.387,99.066,59.126,96.698,57.711z
		"/>
</g>
</svg>
